<?xml version="1.0" encoding="UTF-8"?>
<svg width="24" height="24" viewBox="0 0 24 24" fill="#0066FF" xmlns="http://www.w3.org/2000/svg">
    <path d="M17.5,12.5c-0.7,0-1.4,0.3-2,0.7l-1.5-2.9C14.3,9.5,14.9,9,15.5,9H17V8h-1.5c-1.1,0-2.1,0.7-2.5,1.7l-1.7-3.3
        C11.1,5.9,10.6,5.5,10,5.5H8V7h2l3.5,7H12c-0.3-2.3-2.3-4-4.7-4C4.9,10,3,12.2,3,15s1.9,5,4.3,5c2.4,0,4.4-1.7,4.7-4h2
        c0.3,2.3,2.3,4,4.7,4c2.4,0,4.3-2.2,4.3-5S19.9,12.5,17.5,12.5z M7.3,18c-1.4,0-2.5-1.3-2.5-3s1.1-3,2.5-3c1.4,0,2.5,1.3,2.5,3
        S8.7,18,7.3,18z M17.5,18c-1.4,0-2.5-1.3-2.5-3s1.1-3,2.5-3c1.4,0,2.5,1.3,2.5,3S18.9,18,17.5,18z"/>
</svg>